<svg xmlns="http://www.w3.org/2000/svg" xmlns:xlink="http://www.w3.org/1999/xlink" zoomAndPan="magnify" preserveAspectRatio="xMidYMid meet" version="1.0" viewBox="6.95 137.75 372.99 101.13"><defs><g/></defs><g fill="#eb6440" fill-opacity="1"><g transform="translate(6.972849, 207.020196)"><g><path d="M 41.691406 -36.667969 C 41.417969 -38.839844 38.09375 -40.46875 36.257812 -39.179688 C 34.765625 -38.160156 33.40625 -35.375 32.320312 -33.746094 L 25.667969 -23.699219 C 24.648438 -22.136719 23.628906 -20.574219 22.542969 -19.082031 C 22.273438 -18.605469 19.691406 -14.597656 19.691406 -14.597656 C 19.964844 -14.53125 20.574219 -15.480469 20.710938 -15.617188 C 18.875 -13.035156 16.5 -10.320312 14.257812 -7.742188 C 13.511719 -6.789062 9.03125 -0.882812 7.402344 -1.628906 C 6.859375 -1.902344 6.722656 -2.785156 6.65625 -3.257812 C 6.109375 -6.859375 7.46875 -10.457031 7.875 -13.917969 L 7.605469 -13.242188 L 8.011719 -14.9375 C 8.011719 -14.734375 7.945312 -14.53125 7.945312 -14.328125 L 8.011719 -14.734375 L 7.808594 -12.699219 C 8.757812 -16.773438 10.117188 -20.710938 11.679688 -24.511719 C 12.085938 -25.464844 16.023438 -35.308594 16.839844 -36.191406 C 16.703125 -36.125 16.5 -35.851562 16.296875 -35.582031 C 17.585938 -37.957031 18.945312 -40.199219 20.507812 -42.371094 C 20.167969 -41.828125 19.554688 -40.808594 19.554688 -40.808594 C 19.828125 -40.742188 22.542969 -44.476562 22.542969 -44.882812 C 22.542969 -44.949219 22.339844 -44.816406 22.136719 -44.679688 C 22.816406 -45.5625 23.289062 -46.039062 22.746094 -47.53125 C 21.933594 -49.230469 19.554688 -51.332031 17.585938 -50.316406 C 17.179688 -50.042969 16.90625 -49.703125 16.636719 -49.363281 C 15.210938 -47.53125 14.054688 -45.15625 13.105469 -43.117188 C 12.765625 -42.300781 12.492188 -42.167969 11.949219 -41.554688 C 11.066406 -40.539062 10.59375 -39.179688 9.980469 -38.023438 C 8.757812 -35.582031 7.808594 -33 6.722656 -30.488281 C 5.636719 -28.179688 4.753906 -25.800781 4.007812 -23.359375 C 3.667969 -22.40625 3.394531 -21.457031 3.125 -20.507812 C 2.851562 -19.554688 1.902344 -17.789062 2.035156 -16.773438 L 2.445312 -17.65625 C 2.105469 -16.5 1.832031 -15.277344 1.5625 -14.054688 C 1.492188 -14.054688 1.628906 -14.9375 1.628906 -14.9375 C 1.359375 -14.9375 0.746094 -11.949219 0.609375 -11.542969 C 0.339844 -10.117188 0.136719 -8.691406 0 -7.199219 C -0.0664062 -5.636719 0 -4.210938 0.746094 -2.785156 C 2.171875 -0.273438 4.753906 2.171875 7.535156 3.054688 C 8.011719 3.191406 8.554688 3.328125 9.03125 3.257812 C 9.507812 3.191406 9.980469 2.988281 10.320312 2.648438 C 10.59375 2.511719 11.679688 1.359375 10.933594 1.902344 L 12.222656 0.679688 C 12.222656 0.679688 11.609375 1.425781 11.40625 1.5625 C 11.746094 1.425781 12.492188 0.40625 12.492188 0.40625 C 14.734375 -2.035156 16.976562 -4.414062 19.011719 -7.0625 C 21.117188 -9.914062 23.019531 -13.035156 24.917969 -16.09375 C 24.375 -14.464844 24.242188 -12.832031 23.765625 -11.203125 C 23.492188 -10.320312 23.222656 -9.4375 23.019531 -8.554688 C 22.882812 -8.214844 22.746094 -6.585938 22.882812 -6.722656 C 22.882812 -6.519531 22.882812 -6.382812 22.816406 -6.246094 C 22.816406 -6.316406 22.816406 -6.382812 22.746094 -6.449219 C 22.542969 -6.382812 22.542969 -4.34375 22.476562 -4.007812 C 22.203125 -3.054688 21.796875 -2.171875 21.660156 -1.085938 C 21.320312 1.765625 21.523438 5.09375 23.289062 7.535156 C 24.375 9.03125 26.007812 9.847656 27.839844 9.980469 C 29.808594 10.050781 30.894531 8.964844 31.914062 7.46875 C 32.59375 6.449219 33.203125 5.566406 33.609375 4.414062 C 33.949219 3.464844 34.628906 1.628906 34.222656 0.679688 C 33.949219 0.0664062 33.816406 0 33.273438 0.273438 C 32.523438 0.542969 31.640625 2.171875 31.167969 2.785156 C 30.488281 3.53125 29.128906 5.433594 27.976562 5.566406 C 27.296875 5.636719 27.433594 5.5 27.296875 4.683594 C 27.226562 4.210938 27.226562 1.019531 27.296875 0.949219 C 27.09375 1.222656 27.023438 1.492188 26.957031 1.765625 C 27.226562 -0.476562 28.179688 -3.191406 28.859375 -5.566406 C 29.671875 -8.351562 30.285156 -11.136719 31.03125 -13.917969 C 31.847656 -16.773438 32.933594 -19.625 34.085938 -22.339844 C 34.359375 -22.949219 37.414062 -29.671875 37.890625 -30.285156 C 37.414062 -29.945312 34.96875 -24.785156 34.15625 -23.085938 C 35.785156 -26.957031 37.683594 -30.691406 40.0625 -34.222656 C 40.128906 -34.222656 39.382812 -33.066406 39.519531 -33.066406 C 39.722656 -32.933594 41.351562 -35.445312 41.214844 -35.511719 C 41.148438 -35.511719 41.082031 -35.511719 41.011719 -35.445312 C 41.351562 -35.785156 41.757812 -35.988281 41.691406 -36.667969 Z M 23.96875 -4.414062 C 23.359375 -1.628906 22.679688 2.105469 23.222656 4.890625 C 22.609375 1.765625 22.816406 -1.765625 23.359375 -4.890625 C 23.765625 -7.46875 24.511719 -9.847656 25.394531 -12.222656 C 24.648438 -9.507812 24.582031 -7.128906 23.96875 -4.414062 Z M 12.628906 -30.214844 C 14.53125 -34.765625 17.246094 -38.90625 20.097656 -42.847656 C 17.246094 -38.773438 14.9375 -34.359375 12.902344 -29.808594 C 11.339844 -26.210938 9.914062 -22.746094 8.894531 -19.148438 C 9.097656 -20.097656 9.300781 -21.050781 9.640625 -22 C 10.457031 -24.785156 11.542969 -27.5 12.628906 -30.214844 Z M 11.066406 -23.628906 C 12.289062 -26.957031 13.714844 -30.285156 15.347656 -33.542969 C 13.851562 -30.417969 11.816406 -25.53125 11.066406 -23.628906 Z M 32.59375 -19.148438 C 32.390625 -18.535156 32.117188 -17.925781 31.847656 -17.382812 L 33.066406 -20.507812 Z M 16.296875 -35.511719 L 16.296875 -35.582031 Z M 21.390625 -44.476562 C 21.390625 -44.40625 21.320312 -44.339844 21.253906 -44.339844 C 21.320312 -44.339844 21.390625 -44.40625 21.390625 -44.476562 Z M 21.390625 -44.476562 "/></g></g></g><g fill="#eb6440" fill-opacity="1"><g transform="translate(45.130701, 207.020196)"><g><path d="M 34.628906 -16.296875 C 34.359375 -18.265625 32.390625 -16.296875 31.777344 -15.753906 C 30.625 -14.871094 29.402344 -14.125 28.246094 -13.242188 C 26.683594 -12.15625 25.191406 -10.933594 23.699219 -9.710938 C 23.085938 -9.234375 19.351562 -5.773438 19.011719 -5.976562 C 20.097656 -9.371094 22 -12.765625 23.832031 -15.957031 C 25.53125 -18.808594 22.066406 -21.253906 19.285156 -20.03125 C 18.46875 -19.691406 17.585938 -18.199219 17.042969 -17.449219 C 15.753906 -15.617188 14.53125 -13.648438 13.242188 -11.816406 L 11.40625 -9.03125 C 11.203125 -8.757812 9.914062 -6.859375 10.117188 -6.859375 C 10.183594 -6.859375 10.253906 -6.925781 10.320312 -6.992188 C 8.964844 -5.160156 6.992188 -2.851562 5.226562 -1.5625 C 2.785156 0.339844 4.210938 -5.363281 4.550781 -6.316406 C 5.566406 -9.371094 7.265625 -12.289062 9.097656 -14.9375 C 9.371094 -15.347656 13.105469 -20.097656 14.328125 -21.253906 C 13.105469 -20.234375 9.4375 -15.683594 8.828125 -14.9375 C 11 -18.0625 14.464844 -23.019531 18.535156 -23.699219 L 17.65625 -23.359375 C 18.46875 -23.492188 20.300781 -23.425781 20.300781 -23.425781 L 20.097656 -23.628906 C 20.4375 -23.425781 20.640625 -23.15625 21.050781 -23.15625 C 22.746094 -23.222656 22.339844 -25.9375 21.59375 -26.753906 C 20.574219 -28.109375 18.128906 -28.65625 16.5 -28.246094 C 16.023438 -28.109375 15.820312 -27.839844 15.277344 -27.773438 C 14.667969 -27.636719 14.191406 -27.773438 13.445312 -27.363281 C 12.085938 -26.683594 10.933594 -25.734375 9.847656 -24.648438 C 9.167969 -24.039062 2.648438 -17.042969 3.125 -16.773438 C 3.257812 -16.773438 3.394531 -16.90625 3.464844 -16.976562 L 2.308594 -15.277344 C 2.242188 -15.347656 2.582031 -15.820312 2.511719 -15.820312 C 2.242188 -15.957031 0.882812 -13.714844 0.816406 -13.511719 C 0.136719 -12.425781 -0.40625 -11.203125 -0.609375 -9.914062 C -0.882812 -8.488281 -0.949219 -6.925781 -0.949219 -5.5 C -0.949219 -4.550781 -0.882812 -3.597656 -0.609375 -2.714844 C -0.542969 -2.582031 0.273438 -1.019531 0.136719 -1.699219 L 0.339844 -1.222656 C 0.273438 -1.222656 0.203125 -1.289062 0.136719 -1.359375 C -0.136719 -0.882812 2.445312 1.425781 2.917969 1.628906 C 3.9375 2.105469 4.890625 1.832031 5.90625 1.222656 C 8.148438 -0.136719 9.710938 -2.714844 11.273438 -4.890625 C 12.96875 -7.199219 14.871094 -9.574219 16.296875 -12.15625 L 14.800781 -6.859375 C 14.191406 -4.890625 13.851562 -1.96875 12.628906 -0.40625 C 11.339844 1.15625 9.4375 2.511719 8.011719 3.871094 C 6.519531 5.226562 5.023438 6.585938 3.667969 8.148438 C 1.699219 10.390625 -0.136719 12.832031 -1.832031 15.277344 C -3.800781 18.128906 -5.160156 21.183594 -3.800781 24.511719 C -2.582031 27.433594 0.203125 30.148438 3.597656 29.332031 C 6.519531 28.585938 7.605469 26.140625 8.894531 23.832031 C 12.96875 16.773438 15.007812 8.625 17.316406 0.816406 C 17.65625 -0.339844 17.859375 -1.492188 18.671875 -2.375 C 19.488281 -3.191406 20.507812 -3.9375 21.457031 -4.683594 C 23.359375 -6.382812 25.328125 -7.945312 27.363281 -9.574219 L 32.863281 -13.785156 C 33.746094 -14.464844 34.902344 -15.007812 34.628906 -16.296875 Z M 10.59375 6.789062 C 10.59375 6.722656 10.253906 7.671875 10.320312 7.535156 C 8.894531 11.679688 7.535156 15.820312 5.636719 19.757812 C 4.683594 21.726562 0.203125 29.875 -1.425781 23.902344 C -2.511719 20.097656 1.15625 15.753906 3.257812 12.96875 C 5.839844 9.640625 8.488281 6.65625 11.542969 3.800781 C 11.273438 4.820312 10.933594 5.839844 10.59375 6.789062 Z M 10.320312 11.542969 C 9.914062 13.035156 9.4375 14.53125 8.828125 15.957031 C 8.214844 17.109375 7.402344 18.128906 6.789062 19.214844 C 8.011719 16.566406 9.300781 14.054688 10.320312 11.339844 Z M 6.925781 -13.582031 C 6.519531 -12.832031 5.90625 -12.15625 5.363281 -11.40625 C 5.90625 -12.628906 6.449219 -13.714844 7.46875 -14.800781 C 7.671875 -15.007812 8.011719 -15.347656 8.214844 -15.683594 Z M 6.859375 -11.816406 L 6.246094 -10.933594 C 6.65625 -11.679688 7.128906 -12.425781 7.671875 -13.171875 Z M 6.859375 -11.816406 "/></g></g></g><g fill="#eb6440" fill-opacity="1"><g transform="translate(74.801478, 207.020196)"><g><path d="M 27.160156 -17.316406 C 26.210938 -16.296875 25.597656 -14.597656 24.851562 -13.375 C 23.699219 -11.40625 22.542969 -9.507812 21.320312 -7.605469 C 19.011719 -3.9375 16.703125 -0.203125 13.917969 3.125 C 12.765625 4.550781 10.320312 8.011719 8.011719 7.742188 C 6.316406 7.46875 6.316406 4.550781 6.316406 3.257812 C 6.316406 2.171875 6.382812 1.085938 6.519531 0.0664062 C 6.585938 -0.542969 7.128906 -2.582031 6.789062 -3.125 L 6.246094 -1.085938 C 6.316406 -1.902344 6.449219 -2.785156 6.65625 -3.597656 C 6.585938 -3.734375 7.199219 -5.636719 7.332031 -6.246094 C 7.671875 -7.605469 8.011719 -8.964844 8.417969 -10.320312 C 8.757812 -11.679688 9.097656 -12.96875 9.507812 -14.257812 C 9.847656 -15.480469 10.320312 -16.09375 11.066406 -17.042969 C 14.125 -20.847656 16.90625 -24.988281 19.488281 -29.128906 C 20.4375 -30.691406 21.050781 -32.050781 22.203125 -33.339844 C 23.902344 -35.105469 25.054688 -37.753906 26.140625 -39.925781 C 27.976562 -43.457031 30.417969 -48.347656 30.011719 -52.488281 L 30.011719 -52.828125 L 29.945312 -52.894531 C 29.539062 -55.542969 27.09375 -58.667969 24.105469 -57.714844 C 22.542969 -57.242188 21.390625 -55.609375 20.4375 -54.457031 L 18.875 -52.351562 C 18.535156 -51.945312 18.0625 -50.925781 17.722656 -50.382812 L 17.789062 -50.449219 L 15.617188 -46.714844 L 16.160156 -47.871094 C 15.820312 -47.9375 14.328125 -45.019531 14.125 -44.679688 C 13.375 -43.390625 12.699219 -42.097656 12.085938 -40.808594 C 10.726562 -38.09375 9.371094 -35.308594 8.488281 -32.390625 C 7.535156 -29.46875 6.449219 -26.617188 5.433594 -23.699219 C 4.890625 -22.136719 4.34375 -20.507812 3.871094 -18.945312 C 3.464844 -17.65625 2.511719 -15.550781 2.714844 -14.191406 L 2.917969 -14.191406 C 2.714844 -13.714844 2.582031 -13.242188 2.445312 -12.765625 C 2.511719 -13.171875 2.511719 -13.648438 2.582031 -13.785156 C 2.242188 -13.308594 2.308594 -11.679688 2.242188 -11.542969 C 1.359375 -7.875 0.339844 -4.210938 0.0664062 -0.40625 C -0.136719 3.191406 -0.136719 7.945312 2.714844 10.59375 C 5.90625 13.511719 9.574219 11.542969 12.222656 9.03125 C 15.347656 5.976562 17.992188 2.375 20.4375 -1.15625 C 22.679688 -4.414062 24.445312 -7.875 26.480469 -11.136719 C 27.296875 -12.492188 28.179688 -13.851562 28.585938 -15.347656 C 28.859375 -16.433594 28.722656 -18.945312 27.160156 -17.316406 Z M 18.671875 -41.625 C 20.03125 -44.882812 21.390625 -48.210938 23.289062 -51.265625 C 23.765625 -52.011719 26.820312 -56.085938 26.683594 -52.488281 L 26.683594 -52.421875 C 26.550781 -48.617188 24.105469 -44.609375 22.476562 -41.351562 L 19.625 -36.054688 C 18.671875 -34.425781 17.042969 -32.390625 16.5 -30.625 C 16.90625 -31.710938 18.128906 -33.273438 18.742188 -34.289062 C 19.757812 -35.988281 20.640625 -37.683594 21.59375 -39.382812 C 23.15625 -42.371094 24.851562 -45.492188 26.007812 -48.753906 C 22.949219 -39.65625 17.246094 -31.167969 12.222656 -23.085938 C 14.191406 -29.0625 16.160156 -35.582031 18.671875 -41.625 Z M 16.5 -46.375 C 17.179688 -47.667969 18.402344 -48.753906 19.082031 -49.976562 C 17.65625 -47.125 15.890625 -44.542969 14.394531 -41.828125 C 14.394531 -41.894531 14.394531 -42.03125 14.464844 -42.097656 C 15.074219 -43.59375 15.753906 -44.949219 16.5 -46.375 Z M 3.667969 -11.273438 C 3.597656 -11.136719 3.597656 -11.066406 3.597656 -11.066406 C 2.785156 -9.167969 2.714844 -6.585938 2.308594 -4.550781 C 2.242188 -4.074219 2.105469 -3.667969 2.105469 -3.191406 L 2.105469 -3.394531 L 1.902344 -1.222656 C 2.035156 -3.667969 2.308594 -6.179688 2.785156 -8.554688 L 2.785156 -8.488281 C 2.988281 -10.050781 3.328125 -11.476562 3.597656 -11.476562 C 3.734375 -11.542969 3.734375 -11.339844 3.667969 -11.273438 Z M 3.667969 -11.273438 "/></g></g></g><g fill="#eb6440" fill-opacity="1"><g transform="translate(98.836854, 207.020196)"><g><path d="M 39.585938 -16.226562 C 39.382812 -18.402344 37.277344 -16.296875 36.597656 -15.683594 C 35.445312 -14.734375 34.222656 -13.917969 33.066406 -12.96875 C 29.742188 -10.457031 26.617188 -7.808594 23.492188 -5.160156 C 24.785156 -8.828125 26.683594 -12.492188 28.722656 -15.820312 C 29.128906 -16.5 29.46875 -17.109375 29.332031 -17.925781 C 28.992188 -19.757812 26.550781 -20.507812 24.917969 -20.234375 C 23.492188 -19.964844 23.359375 -19.285156 23.085938 -18.332031 C 22.542969 -16.636719 20.574219 -15.140625 19.417969 -13.851562 C 18.945312 -13.308594 15.753906 -9.4375 15.683594 -9.4375 C 15.890625 -9.4375 16.023438 -9.574219 16.160156 -9.640625 C 14.667969 -8.082031 12.359375 -6.449219 10.523438 -5.023438 C 9.777344 -4.414062 7.605469 -2.242188 6.449219 -2.648438 C 3.191406 -3.667969 9.914062 -16.703125 9.710938 -16.773438 C 9.507812 -16.839844 7.332031 -11.476562 6.859375 -10.253906 C 7.945312 -13.582031 9.371094 -16.839844 10.863281 -19.964844 C 10.796875 -19.691406 10.59375 -19.148438 10.726562 -19.148438 C 10.933594 -19.082031 11.949219 -21.320312 11.746094 -21.390625 C 11.679688 -21.390625 11.609375 -21.320312 11.542969 -21.320312 C 11.746094 -21.59375 12.085938 -21.726562 12.222656 -22.136719 C 12.425781 -23.019531 11.40625 -23.96875 10.660156 -24.242188 C 9.03125 -24.917969 7.128906 -23.96875 6.382812 -22.40625 C 6.179688 -22.136719 5.976562 -21.660156 5.839844 -21.523438 C 5.636719 -21.117188 5.296875 -20.980469 5.023438 -20.574219 C 4.277344 -19.285156 3.871094 -17.789062 3.328125 -16.433594 C 3.125 -15.820312 0.746094 -9.03125 1.085938 -8.964844 L 1.222656 -9.097656 C 1.085938 -8.625 1.019531 -8.082031 0.949219 -7.605469 C 0.816406 -7.671875 1.019531 -8.082031 0.882812 -8.082031 C 0.203125 -8.148438 -0.0664062 -3.800781 0 -3.328125 C 0.136719 -1.96875 1.019531 -0.273438 2.308594 0.40625 C 2.917969 0.746094 3.734375 0.882812 4.480469 0.746094 C 4.753906 0.746094 6.042969 0.203125 5.566406 0.203125 L 5.976562 0.0664062 L 5.839844 0.203125 C 5.90625 0.273438 8.351562 -0.816406 8.757812 -0.949219 C 10.726562 -1.765625 12.425781 -3.328125 13.851562 -4.820312 L 18.332031 -9.300781 C 19.351562 -10.320312 20.234375 -11.882812 21.320312 -12.699219 C 20.710938 -10.796875 20.097656 -8.894531 19.554688 -6.992188 C 18.808594 -4.753906 18.402344 -1.96875 17.316406 0.0664062 C 16.433594 1.699219 14.191406 3.191406 12.902344 4.480469 C 11.066406 6.179688 9.234375 7.875 7.535156 9.640625 C 5.160156 12.15625 3.054688 15.007812 0.949219 17.789062 C -1.222656 20.710938 -4.210938 24.851562 -1.492188 28.382812 C 0.339844 30.894531 3.734375 32.457031 6.789062 31.640625 C 9.574219 30.964844 10.660156 28.65625 12.019531 26.480469 C 16.363281 19.285156 18.742188 10.933594 21.253906 2.988281 C 21.660156 1.832031 21.933594 -0.203125 22.609375 -1.15625 C 23.289062 -2.105469 24.648438 -2.917969 25.464844 -3.667969 C 27.5 -5.5 29.605469 -7.265625 31.710938 -8.964844 L 37.617188 -13.648438 C 38.5 -14.328125 39.722656 -14.9375 39.585938 -16.226562 Z M 10.390625 19.011719 L 10.390625 19.082031 L 10.117188 19.625 L 10.117188 19.691406 C 10.050781 19.691406 10.050781 19.757812 10.050781 19.757812 C 10.050781 19.828125 9.980469 19.964844 9.980469 19.964844 C 9.300781 21.523438 8.488281 23.085938 7.605469 24.582031 C 6.859375 25.800781 5.839844 27.773438 4.414062 28.246094 C 1.699219 29.199219 1.492188 24.714844 1.902344 23.222656 C 2.917969 19.554688 5.636719 16.363281 7.945312 13.445312 C 10.320312 10.390625 12.832031 7.605469 15.683594 4.957031 C 14.054688 9.640625 12.425781 14.394531 10.390625 19.011719 Z M 14.328125 18.0625 C 14.597656 17.246094 15.074219 16.363281 15.550781 15.550781 C 15.140625 16.773438 14.800781 17.992188 14.054688 19.214844 L 13.445312 20.300781 C 13.714844 19.554688 13.988281 18.742188 14.328125 18.0625 Z M 16.636719 10.660156 L 15.414062 13.648438 C 15.550781 13.035156 15.683594 12.359375 15.957031 11.949219 C 16.226562 11.339844 16.773438 10.253906 16.636719 9.507812 C 16.703125 9.847656 16.773438 10.320312 16.636719 10.660156 Z M 14.464844 16.433594 L 14.734375 16.023438 C 14.667969 16.160156 14.597656 16.296875 14.464844 16.433594 Z M 14.464844 16.433594 "/></g></g></g><g fill="#eb6440" fill-opacity="1"><g transform="translate(133.464071, 207.020196)"><g/></g></g><g fill="#eb6440" fill-opacity="1"><g transform="translate(152.475107, 207.020196)"><g><path d="M 6.382812 -5.433594 L 6.316406 -5.363281 C 6.382812 -5.433594 6.382812 -5.433594 6.382812 -5.5 L 6.382812 -5.839844 C 7.128906 -9.847656 8.554688 -13.785156 9.980469 -17.65625 C 11.476562 -21.726562 12.902344 -25.734375 14.800781 -29.605469 C 16.566406 -33.273438 18.605469 -36.871094 20.914062 -40.199219 C 22.949219 -43.253906 25.394531 -46.582031 28.519531 -48.617188 C 29.46875 -48.890625 30.417969 -49.90625 31.640625 -49.703125 C 32.863281 -49.5 32.863281 -48.210938 32.59375 -46.988281 C 32.933594 -47.9375 33.136719 -48.957031 32.320312 -49.636719 C 31.234375 -50.449219 29.128906 -49.160156 28.246094 -48.550781 C 27.839844 -48.414062 27.433594 -48.140625 27.09375 -47.871094 C 27.296875 -48.074219 27.566406 -48.277344 27.90625 -48.480469 L 27.566406 -48.347656 L 28.519531 -48.890625 C 29.605469 -49.5 32.050781 -50.859375 32.863281 -49.09375 C 33.476562 -47.667969 32.523438 -45.289062 32.050781 -43.933594 C 31.167969 -41.625 30.082031 -39.449219 28.925781 -37.277344 C 29.128906 -37.753906 29.945312 -39.585938 29.945312 -39.585938 C 29.46875 -39.65625 27.296875 -34.628906 26.890625 -34.492188 L 26.957031 -34.492188 C 26.683594 -34.289062 26.480469 -34.085938 26.480469 -34.019531 C 26.347656 -33.203125 27.296875 -33.40625 27.839844 -33.476562 C 30.148438 -33.746094 33.136719 -35.714844 34.628906 -37.414062 C 36.257812 -39.246094 36.871094 -42.03125 36.871094 -44.476562 L 36.871094 -44.542969 C 36.800781 -49.160156 33.609375 -55 28.109375 -54.660156 C 25.054688 -54.523438 22.203125 -51.539062 20.234375 -49.5 C 18.808594 -47.871094 17.449219 -46.105469 16.226562 -44.339844 C 15.683594 -43.523438 15.140625 -42.777344 14.667969 -41.964844 C 14.125 -41.214844 13.035156 -40.0625 12.765625 -39.179688 C 12.765625 -39.179688 13.105469 -39.585938 13.375 -39.859375 C 12.628906 -38.703125 11.949219 -37.480469 11.273438 -36.328125 C 11.203125 -36.394531 11.679688 -37.347656 11.679688 -37.347656 C 11.066406 -37.480469 8.285156 -31.914062 7.945312 -31.300781 C 6.722656 -29.0625 5.636719 -26.820312 4.890625 -24.445312 C 4.074219 -21.796875 2.988281 -19.285156 2.171875 -16.703125 C 1.765625 -15.414062 1.359375 -14.191406 1.085938 -12.902344 C 0.949219 -12.289062 0.816406 -11.746094 0.746094 -11.136719 C 0.746094 -11.066406 0.609375 -9.980469 0.746094 -10.117188 C 0.609375 -9.640625 0.609375 -9.03125 0.542969 -8.554688 C 0.542969 -8.554688 0.542969 -9.710938 0.609375 -9.847656 C 0.339844 -9.507812 0.542969 -8.214844 0.476562 -8.082031 C 0.136719 -5.5 -0.40625 -2.785156 0.476562 -0.273438 C 1.628906 3.191406 4.480469 6.042969 7.605469 7.875 C 9.234375 8.894531 11.40625 10.050781 13.445312 9.914062 C 15.820312 9.777344 18.128906 7.808594 19.894531 6.382812 C 25.054688 2.035156 29.742188 -4.074219 30.625 -11 C 30.691406 -11.476562 31.03125 -13.851562 30.214844 -13.917969 C 29.46875 -13.988281 28.925781 -12.359375 28.65625 -11.949219 C 26.617188 -8.625 24.242188 -5.5 21.59375 -2.648438 C 18.875 0.339844 15.480469 3.53125 11.339844 4.480469 C 10.796875 4.617188 10.183594 4.683594 9.574219 4.683594 C 8.757812 4.617188 8.011719 4.414062 7.402344 3.800781 C 7.0625 3.464844 6.722656 2.308594 6.316406 2.105469 C 6.316406 1.765625 6.246094 1.425781 6.179688 1.222656 L 5.976562 0.816406 C 5.90625 -1.222656 5.976562 -3.125 6.316406 -5.226562 L 6.316406 -5.296875 C 6.316406 -5.363281 6.382812 -5.363281 6.382812 -5.433594 Z M 18.332031 -38.636719 C 15.683594 -34.289062 13.445312 -29.808594 11.203125 -25.191406 C 9.914062 -22.476562 8.625 -19.691406 7.605469 -16.773438 C 9.03125 -21.320312 10.726562 -25.667969 12.765625 -30.011719 C 15.210938 -35.242188 18.46875 -40.332031 22.339844 -44.542969 C 20.777344 -42.640625 19.417969 -40.46875 18.332031 -38.636719 Z M 25.328125 -46.105469 C 24.375 -45.15625 23.492188 -44.066406 22.679688 -43.050781 C 23.96875 -44.746094 25.328125 -46.445312 27.023438 -47.800781 C 26.414062 -47.257812 25.800781 -46.582031 25.328125 -46.105469 Z M 32.253906 -45.5625 C 32.390625 -45.96875 32.523438 -46.445312 32.59375 -46.988281 C 32.457031 -46.375 32.183594 -45.765625 32.183594 -45.289062 C 32.253906 -45.425781 32.253906 -45.492188 32.253906 -45.5625 Z M 32.253906 -45.5625 "/></g></g></g><g fill="#eb6440" fill-opacity="1"><g transform="translate(186.355461, 207.020196)"><g><path d="M 27.160156 -17.316406 C 26.210938 -16.296875 25.597656 -14.597656 24.851562 -13.375 C 23.699219 -11.40625 22.542969 -9.507812 21.320312 -7.605469 C 19.011719 -3.9375 16.703125 -0.203125 13.917969 3.125 C 12.765625 4.550781 10.320312 8.011719 8.011719 7.742188 C 6.316406 7.46875 6.316406 4.550781 6.316406 3.257812 C 6.316406 2.171875 6.382812 1.085938 6.519531 0.0664062 C 6.585938 -0.542969 7.128906 -2.582031 6.789062 -3.125 L 6.246094 -1.085938 C 6.316406 -1.902344 6.449219 -2.785156 6.65625 -3.597656 C 6.585938 -3.734375 7.199219 -5.636719 7.332031 -6.246094 C 7.671875 -7.605469 8.011719 -8.964844 8.417969 -10.320312 C 8.757812 -11.679688 9.097656 -12.96875 9.507812 -14.257812 C 9.847656 -15.480469 10.320312 -16.09375 11.066406 -17.042969 C 14.125 -20.847656 16.90625 -24.988281 19.488281 -29.128906 C 20.4375 -30.691406 21.050781 -32.050781 22.203125 -33.339844 C 23.902344 -35.105469 25.054688 -37.753906 26.140625 -39.925781 C 27.976562 -43.457031 30.417969 -48.347656 30.011719 -52.488281 L 30.011719 -52.828125 L 29.945312 -52.894531 C 29.539062 -55.542969 27.09375 -58.667969 24.105469 -57.714844 C 22.542969 -57.242188 21.390625 -55.609375 20.4375 -54.457031 L 18.875 -52.351562 C 18.535156 -51.945312 18.0625 -50.925781 17.722656 -50.382812 L 17.789062 -50.449219 L 15.617188 -46.714844 L 16.160156 -47.871094 C 15.820312 -47.9375 14.328125 -45.019531 14.125 -44.679688 C 13.375 -43.390625 12.699219 -42.097656 12.085938 -40.808594 C 10.726562 -38.09375 9.371094 -35.308594 8.488281 -32.390625 C 7.535156 -29.46875 6.449219 -26.617188 5.433594 -23.699219 C 4.890625 -22.136719 4.34375 -20.507812 3.871094 -18.945312 C 3.464844 -17.65625 2.511719 -15.550781 2.714844 -14.191406 L 2.917969 -14.191406 C 2.714844 -13.714844 2.582031 -13.242188 2.445312 -12.765625 C 2.511719 -13.171875 2.511719 -13.648438 2.582031 -13.785156 C 2.242188 -13.308594 2.308594 -11.679688 2.242188 -11.542969 C 1.359375 -7.875 0.339844 -4.210938 0.0664062 -0.40625 C -0.136719 3.191406 -0.136719 7.945312 2.714844 10.59375 C 5.90625 13.511719 9.574219 11.542969 12.222656 9.03125 C 15.347656 5.976562 17.992188 2.375 20.4375 -1.15625 C 22.679688 -4.414062 24.445312 -7.875 26.480469 -11.136719 C 27.296875 -12.492188 28.179688 -13.851562 28.585938 -15.347656 C 28.859375 -16.433594 28.722656 -18.945312 27.160156 -17.316406 Z M 18.671875 -41.625 C 20.03125 -44.882812 21.390625 -48.210938 23.289062 -51.265625 C 23.765625 -52.011719 26.820312 -56.085938 26.683594 -52.488281 L 26.683594 -52.421875 C 26.550781 -48.617188 24.105469 -44.609375 22.476562 -41.351562 L 19.625 -36.054688 C 18.671875 -34.425781 17.042969 -32.390625 16.5 -30.625 C 16.90625 -31.710938 18.128906 -33.273438 18.742188 -34.289062 C 19.757812 -35.988281 20.640625 -37.683594 21.59375 -39.382812 C 23.15625 -42.371094 24.851562 -45.492188 26.007812 -48.753906 C 22.949219 -39.65625 17.246094 -31.167969 12.222656 -23.085938 C 14.191406 -29.0625 16.160156 -35.582031 18.671875 -41.625 Z M 16.5 -46.375 C 17.179688 -47.667969 18.402344 -48.753906 19.082031 -49.976562 C 17.65625 -47.125 15.890625 -44.542969 14.394531 -41.828125 C 14.394531 -41.894531 14.394531 -42.03125 14.464844 -42.097656 C 15.074219 -43.59375 15.753906 -44.949219 16.5 -46.375 Z M 3.667969 -11.273438 C 3.597656 -11.136719 3.597656 -11.066406 3.597656 -11.066406 C 2.785156 -9.167969 2.714844 -6.585938 2.308594 -4.550781 C 2.242188 -4.074219 2.105469 -3.667969 2.105469 -3.191406 L 2.105469 -3.394531 L 1.902344 -1.222656 C 2.035156 -3.667969 2.308594 -6.179688 2.785156 -8.554688 L 2.785156 -8.488281 C 2.988281 -10.050781 3.328125 -11.476562 3.597656 -11.476562 C 3.734375 -11.542969 3.734375 -11.339844 3.667969 -11.273438 Z M 3.667969 -11.273438 "/></g></g></g><g fill="#eb6440" fill-opacity="1"><g transform="translate(210.390837, 207.020196)"><g><path d="M 31.234375 -16.90625 C 31.234375 -16.90625 31.300781 -16.839844 31.234375 -16.976562 C 30.894531 -17.449219 30.417969 -17.109375 29.945312 -16.976562 C 27.976562 -16.566406 25.9375 -16.09375 23.902344 -15.753906 C 24.648438 -18.199219 25.394531 -20.777344 25.667969 -23.289062 C 25.800781 -24.242188 25.871094 -25.257812 25.667969 -26.210938 C 25.53125 -26.820312 25.328125 -27.433594 24.988281 -27.976562 C 24.988281 -27.976562 24.171875 -28.992188 24.375 -28.449219 L 24.308594 -28.519531 L 24.039062 -29.0625 L 24.308594 -28.789062 C 24.375 -29.199219 23.222656 -29.945312 23.222656 -29.945312 C 21.523438 -31.640625 19.214844 -32.933594 16.90625 -31.640625 C 15.480469 -30.828125 14.328125 -29.46875 13.375 -28.109375 C 13.035156 -27.636719 12.699219 -27.09375 12.425781 -26.550781 C 12.15625 -26.007812 11.746094 -24.242188 11.339844 -23.96875 C 11 -23.699219 9.980469 -23.628906 9.507812 -23.359375 C 8.828125 -23.085938 8.214844 -22.746094 7.671875 -22.339844 C 6.382812 -21.523438 5.363281 -20.371094 4.414062 -19.214844 C 2.785156 -17.042969 1.96875 -14.597656 0.816406 -12.425781 C -1.359375 -8.285156 1.019531 -2.851562 5.023438 -0.882812 C 6.316406 -0.273438 7.808594 0 9.167969 -0.136719 C 10.59375 -0.339844 11.949219 -1.085938 13.035156 -1.902344 C 14.054688 -2.648438 16.296875 -4.007812 16.703125 -5.160156 C 16.703125 -5.226562 16.566406 -5.160156 16.363281 -4.957031 L 18.332031 -7.265625 C 18.402344 -7.199219 17.859375 -6.519531 17.859375 -6.519531 C 18.332031 -6.316406 20.777344 -9.914062 21.050781 -10.183594 C 21.523438 -11 22 -11.882812 22.542969 -12.699219 C 23.019531 -13.308594 22.882812 -13.242188 23.5625 -13.511719 C 23.492188 -13.445312 24.375 -13.714844 24.511719 -13.714844 C 25.257812 -13.851562 33.203125 -14.394531 31.234375 -16.90625 Z M 7.742188 -3.191406 L 7.671875 -3.191406 C 2.035156 -2.375 8.554688 -14.328125 8.691406 -15.007812 L 8.285156 -14.394531 C 9.300781 -16.433594 10.253906 -18.0625 10.726562 -18.605469 C 11.476562 -15.210938 15.140625 -13.917969 18.128906 -13.511719 C 16.160156 -9.574219 12.492188 -4.074219 7.742188 -3.191406 Z M 21.117188 -22 C 20.640625 -20.097656 20.234375 -17.585938 19.214844 -15.890625 C 18.875 -15.210938 19.082031 -15.414062 18.402344 -15.277344 C 17.992188 -15.140625 17.109375 -15.277344 16.703125 -15.347656 C 15.957031 -15.414062 15.074219 -15.550781 14.53125 -16.023438 C 13.582031 -16.839844 13.714844 -18.128906 13.851562 -19.285156 C 13.988281 -20.4375 14.328125 -21.523438 14.734375 -22.609375 C 14.9375 -23.019531 16.226562 -25.191406 16.023438 -25.597656 C 15.957031 -25.800781 15.210938 -24.582031 15.140625 -24.511719 C 15.550781 -25.257812 15.957031 -25.667969 16.296875 -26.140625 C 16.226562 -26.140625 16.296875 -26.210938 16.363281 -26.347656 L 16.363281 -26.277344 L 16.433594 -26.414062 C 16.433594 -26.414062 16.433594 -26.480469 16.5 -26.480469 C 17.519531 -27.839844 20.03125 -30.894531 21.390625 -28.789062 C 22.40625 -27.023438 21.457031 -23.699219 21.117188 -22 Z M 16.433594 -26.414062 L 16.5 -26.480469 C 16.5 -26.414062 16.433594 -26.414062 16.433594 -26.414062 Z M 16.433594 -26.414062 "/></g></g></g><g fill="#eb6440" fill-opacity="1"><g transform="translate(236.938382, 207.020196)"><g><path d="M 27.566406 -35.308594 C 27.5 -36.257812 26.480469 -35.511719 25.9375 -35.511719 C 23.222656 -35.375 20.507812 -35.375 17.859375 -35.242188 C 17.859375 -35.308594 17.992188 -35.582031 18.199219 -35.988281 C 17.925781 -35.511719 17.722656 -35.242188 17.519531 -35.242188 C 19.554688 -39.382812 21.726562 -43.523438 24.308594 -47.328125 C 24.242188 -47.191406 23.222656 -45.492188 23.289062 -45.492188 C 23.492188 -45.425781 26.007812 -48.890625 26.074219 -49.363281 C 26.074219 -49.636719 25.464844 -48.957031 25.464844 -49.023438 C 25.871094 -49.433594 26.550781 -49.773438 26.753906 -50.316406 C 27.226562 -51.671875 25.800781 -52.285156 24.785156 -52.488281 C 22.679688 -52.894531 20.300781 -52.625 18.945312 -50.859375 C 17.65625 -49.296875 16.703125 -47.464844 15.890625 -45.628906 C 15.480469 -44.816406 14.9375 -44.609375 14.394531 -43.863281 C 13.582031 -42.710938 13.035156 -41.351562 12.425781 -40.0625 C 11.882812 -38.90625 11.339844 -37.683594 10.863281 -36.464844 C 10.59375 -35.851562 10.59375 -35.375 9.980469 -35.171875 C 9.371094 -34.902344 8.214844 -35.105469 7.535156 -35.039062 C 4.890625 -34.699219 2.308594 -34.832031 -0.339844 -34.5625 C -1.699219 -34.492188 -3.054688 -34.492188 -4.34375 -34.019531 C -4.617188 -33.949219 -6.109375 -33.609375 -6.246094 -33.40625 C -6.65625 -32.660156 -5.023438 -32.59375 -4.683594 -32.523438 C -2.105469 -32.183594 1.15625 -31.914062 3.734375 -32.390625 C 5.5 -32.726562 7.332031 -32.59375 9.234375 -32.726562 C 8.285156 -30.691406 7.535156 -28.519531 6.789062 -26.347656 L 5.976562 -23.96875 C 5.703125 -23.222656 4.820312 -21.796875 4.820312 -20.980469 C 4.820312 -20.847656 5.023438 -21.183594 5.160156 -21.523438 C 4.820312 -20.507812 4.414062 -19.488281 4.140625 -18.46875 C 4.140625 -18.535156 4.34375 -19.351562 4.277344 -19.351562 C 3.9375 -19.351562 2.582031 -15.210938 2.445312 -14.871094 C 1.765625 -12.832031 1.019531 -10.796875 0.679688 -8.625 C 0.273438 -6.449219 -0.273438 -4.34375 -0.746094 -2.242188 C -1.019531 -1.15625 -1.289062 -0.136719 -1.425781 0.949219 C -1.5625 1.492188 -1.699219 2.105469 -1.699219 2.648438 C -1.699219 2.785156 -1.699219 3.667969 -1.5625 3.394531 L -1.699219 4.753906 L -1.699219 3.734375 C -2.105469 4.210938 -1.699219 6.382812 -1.628906 6.789062 C -1.359375 8.148438 -0.679688 9.371094 0.542969 10.183594 C 1.628906 11 3.328125 11.746094 4.617188 11.136719 C 6.316406 10.320312 7.742188 8.417969 8.828125 7.0625 C 11.203125 4.277344 13.375 1.359375 15.550781 -1.5625 C 17.519531 -4.277344 19.554688 -6.925781 21.253906 -9.777344 C 22.203125 -11.40625 24.039062 -12.902344 24.648438 -14.734375 C 24.988281 -15.617188 24.785156 -16.703125 23.699219 -16.5 C 22.816406 -16.296875 21.59375 -13.917969 21.050781 -13.242188 C 18.605469 -10.183594 16.296875 -7.0625 13.851562 -4.007812 L 9.914062 0.816406 C 9.300781 1.492188 8.691406 2.242188 8.011719 2.917969 C 7.742188 3.257812 6.042969 4.617188 6.109375 5.023438 C 6.109375 5.160156 6.859375 4.550781 7.128906 4.34375 C 6.789062 4.753906 6.382812 5.09375 6.042969 5.433594 C 6.109375 5.363281 4.683594 6.179688 4.480469 6.042969 C 3.191406 5.5 4.34375 1.5625 4.550781 0.609375 C 5.773438 -4.890625 7.605469 -10.457031 9.4375 -15.753906 C 10.523438 -18.671875 11.609375 -21.457031 12.832031 -24.308594 C 13.445312 -25.734375 14.054688 -27.226562 14.734375 -28.65625 L 15.683594 -31.234375 L 14.9375 -29.742188 C 15.414062 -30.964844 16.09375 -32.796875 16.5 -32.863281 L 16.296875 -32.457031 C 16.433594 -32.660156 16.566406 -32.796875 16.703125 -32.863281 C 17.449219 -33.339844 19.351562 -32.863281 20.234375 -32.863281 C 20.847656 -32.863281 21.59375 -32.796875 22.203125 -33 C 22.609375 -33.136719 22.476562 -33.339844 22.949219 -33.476562 C 23.765625 -33.609375 24.785156 -33.066406 25.667969 -33.339844 C 26.480469 -33.542969 27.636719 -34.289062 27.566406 -35.242188 Z M 14.667969 -31.371094 C 11.609375 -24.917969 9.300781 -17.992188 6.859375 -11.273438 C 5.703125 -8.214844 4.617188 -5.023438 3.871094 -1.832031 L 3.53125 -0.542969 C 4.007812 -2.988281 4.550781 -5.363281 5.226562 -7.742188 C 6.722656 -12.96875 8.625 -18.128906 10.863281 -23.085938 C 14.667969 -31.574219 18.0625 -40.671875 23.492188 -48.347656 C 19.828125 -43.117188 17.382812 -37.140625 14.667969 -31.371094 Z M 19.148438 -38.09375 L 20.777344 -41.214844 C 20.4375 -41.148438 19.828125 -39.65625 19.148438 -38.09375 Z M 12.15625 -23.289062 C 11.679688 -22 11.136719 -20.777344 10.59375 -19.554688 C 11.136719 -20.847656 11.609375 -22.203125 12.222656 -23.5625 C 12.15625 -23.425781 12.15625 -23.359375 12.15625 -23.289062 Z M 18.265625 -36.125 L 18.945312 -37.617188 C 18.742188 -37.074219 18.46875 -36.53125 18.265625 -36.125 Z M 3.464844 6.65625 C 3.394531 6.65625 3.328125 6.585938 3.257812 6.519531 Z M 3.464844 6.65625 "/></g></g></g><g fill="#eb6440" fill-opacity="1"><g transform="translate(257.782604, 207.020196)"><g><path d="M 33.679688 -16.703125 C 33.339844 -16.703125 32.863281 -16.023438 32.660156 -15.820312 C 31.710938 -14.871094 30.894531 -13.785156 30.082031 -12.765625 C 27.839844 -10.183594 25.597656 -7.535156 23.15625 -5.160156 C 22.542969 -4.617188 20.980469 -2.785156 20.097656 -3.394531 C 19.554688 -3.734375 20.03125 -5.90625 20.097656 -6.382812 C 20.234375 -6.992188 21.457031 -10.183594 21.050781 -10.59375 C 20.847656 -10.726562 20.507812 -9.710938 20.4375 -9.640625 C 21.523438 -13.445312 23.699219 -17.789062 25.464844 -21.523438 C 26.480469 -23.5625 27.773438 -26.074219 26.074219 -28.179688 C 23.085938 -31.847656 19.351562 -27.160156 17.316406 -24.988281 C 16.433594 -24.039062 7.875 -13.582031 8.011719 -13.511719 C 8.011719 -13.511719 8.625 -14.257812 9.507812 -15.277344 C 8.214844 -13.582031 6.992188 -11.882812 5.839844 -10.117188 C 6.585938 -12.902344 7.402344 -15.617188 8.285156 -18.332031 C 8.757812 -19.691406 9.167969 -21.117188 9.640625 -22.542969 C 10.183594 -24.039062 10.59375 -24.648438 11.746094 -25.734375 C 13.714844 -27.5 15.617188 -29.402344 17.382812 -31.4375 C 18.0625 -32.253906 18.535156 -33.203125 19.214844 -33.949219 C 19.828125 -34.5625 20.710938 -35.105469 21.390625 -35.851562 C 24.851562 -39.925781 27.636719 -45.019531 29.945312 -49.773438 C 30.964844 -52.011719 31.914062 -54.320312 32.59375 -56.699219 C 32.726562 -57.242188 34.222656 -63.488281 33.882812 -63.488281 C 33.816406 -63.488281 33.816406 -63.421875 33.746094 -63.285156 C 33.816406 -64.371094 33.746094 -65.59375 33.339844 -66.679688 C 33.40625 -66.679688 33.746094 -65.660156 33.746094 -65.660156 C 34.15625 -65.933594 32.933594 -68.039062 32.660156 -68.308594 C 32.050781 -68.921875 31.167969 -69.257812 30.285156 -69.257812 C 28.519531 -69.394531 26.890625 -68.445312 25.53125 -67.425781 C 22.949219 -65.457031 21.117188 -62.539062 19.214844 -59.890625 C 18.128906 -58.394531 17.109375 -56.902344 16.160156 -55.339844 C 15.480469 -54.320312 13.988281 -52.488281 13.988281 -51.265625 C 14.054688 -51.199219 14.125 -51.199219 14.125 -51.199219 L 13.308594 -49.636719 C 13.308594 -49.636719 13.714844 -50.859375 13.785156 -50.925781 C 13.445312 -50.722656 13.105469 -49.296875 13.105469 -49.230469 C 10.457031 -44.066406 7.671875 -39.109375 5.839844 -33.609375 C 3.734375 -27.433594 2.171875 -21.050781 1.019531 -14.667969 C 0.476562 -11.746094 -0.203125 -8.554688 0.0664062 -5.566406 C 0.0664062 -4.753906 0.136719 -3.800781 0.746094 -3.125 C 1.492188 -2.171875 3.054688 -1.832031 3.9375 -2.785156 C 4.210938 -3.125 4.210938 -3.328125 4.34375 -3.667969 L 5.566406 -5.839844 C 7.199219 -8.351562 9.167969 -10.660156 10.726562 -13.242188 C 10.933594 -13.648438 11.136719 -14.125 11.40625 -14.464844 C 11.746094 -14.871094 11.882812 -14.667969 12.289062 -15.007812 C 13.445312 -15.957031 14.328125 -17.382812 15.277344 -18.535156 C 17.246094 -20.980469 19.214844 -23.765625 21.726562 -25.800781 L 19.757812 -21.050781 L 19.964844 -21.253906 L 18.945312 -18.945312 C 18.875 -19.011719 19.148438 -19.625 19.148438 -19.691406 C 18.875 -19.691406 17.585938 -17.042969 17.449219 -16.773438 C 16.636719 -15.140625 15.753906 -13.511719 15.277344 -11.816406 C 14.871094 -10.183594 14.394531 -8.554688 13.917969 -6.925781 C 13.714844 -5.90625 13.511719 -4.890625 13.582031 -3.871094 C 13.582031 -3.597656 14.125 -1.15625 14.328125 -1.359375 L 14.328125 -1.628906 C 14.464844 -1.222656 14.597656 -0.882812 14.800781 -0.542969 L 14.394531 -1.15625 C 14.191406 -0.679688 16.023438 0.882812 16.226562 1.085938 C 17.246094 2.105469 18.265625 2.785156 19.828125 2.851562 C 21.117188 2.917969 21.796875 2.445312 22.746094 1.5625 C 25.328125 -0.949219 27.160156 -4.414062 29.128906 -7.402344 C 30.214844 -8.964844 31.300781 -10.59375 32.320312 -12.222656 C 32.59375 -12.5625 34.425781 -16.363281 34.15625 -16.296875 C 34.5625 -16.363281 33.816406 -16.703125 33.679688 -16.703125 Z M 27.773438 -62.402344 L 27.773438 -62.46875 C 27.773438 -62.46875 27.839844 -62.46875 27.839844 -62.539062 L 27.839844 -62.46875 C 27.90625 -62.605469 27.976562 -62.742188 27.90625 -62.671875 C 28.449219 -63.488281 29.808594 -65.933594 30.757812 -65.117188 C 31.710938 -64.300781 30.828125 -61.449219 30.554688 -60.433594 C 30.011719 -58.328125 29.199219 -56.289062 28.382812 -54.320312 C 26.753906 -50.519531 24.714844 -46.917969 22.476562 -43.390625 C 21.390625 -41.691406 20.234375 -39.992188 19.082031 -38.363281 C 18.46875 -37.550781 17.859375 -36.734375 17.179688 -35.917969 L 16.636719 -35.308594 L 17.859375 -36.53125 L 20.574219 -40.332031 C 22.066406 -42.371094 23.492188 -44.609375 24.851562 -46.851562 C 21.390625 -40.742188 17.179688 -34.96875 12.289062 -29.808594 L 14.328125 -35.171875 C 14.53125 -35.582031 15.957031 -39.585938 15.957031 -39.585938 C 15.820312 -39.519531 15.617188 -39.179688 15.414062 -38.839844 C 17.042969 -42.574219 19.148438 -46.445312 21.050781 -50.179688 C 23.15625 -54.253906 25.257812 -58.464844 27.703125 -62.332031 C 27.703125 -62.332031 27.773438 -62.332031 27.773438 -62.402344 Z M 10.726562 -29.128906 C 11.339844 -32.796875 13.035156 -36.257812 14.257812 -39.789062 C 15.347656 -42.777344 17.109375 -45.492188 18.46875 -48.347656 C 19.082031 -49.703125 25.597656 -62.128906 25.734375 -62.0625 C 26.277344 -61.722656 17.925781 -45.765625 17.042969 -43.863281 C 16.296875 -42.4375 15.617188 -41.082031 15.074219 -39.519531 C 14.597656 -38.023438 13.785156 -36.800781 13.242188 -35.375 C 12.96875 -34.699219 10.253906 -27.566406 10.457031 -27.5 C 10.320312 -27.5 10.59375 -28.585938 10.660156 -28.925781 Z M 15.414062 -33.882812 C 15.550781 -34.019531 15.683594 -34.289062 15.890625 -34.492188 C 15.683594 -34.289062 15.550781 -34.085938 15.414062 -33.882812 Z M 27.773438 -62.402344 L 27.773438 -62.46875 L 27.839844 -62.46875 Z M 10.726562 -29.0625 C 10.726562 -28.992188 10.660156 -28.925781 10.660156 -28.925781 C 10.660156 -28.992188 10.726562 -28.992188 10.726562 -29.0625 Z M 10.726562 -29.0625 "/></g></g></g><g fill="#eb6440" fill-opacity="1"><g transform="translate(287.045999, 207.020196)"><g><path d="M 41.285156 -16.296875 C 41.285156 -16.296875 41.351562 -16.226562 41.285156 -16.363281 C 40.808594 -17.859375 37.820312 -13.785156 37.480469 -13.375 C 35.714844 -11.273438 33.949219 -9.097656 32.117188 -7.0625 C 31.371094 -6.246094 28.722656 -2.582031 27.433594 -2.851562 C 26.820312 -2.988281 27.296875 -6.246094 27.296875 -6.246094 C 27.160156 -6.109375 27.09375 -5.976562 27.023438 -5.839844 C 27.566406 -8.417969 29.128906 -11.476562 30.214844 -14.054688 C 31.371094 -16.976562 33.066406 -20.777344 32.183594 -24.039062 C 31.167969 -27.773438 27.296875 -25.871094 25.464844 -24.105469 C 24.785156 -23.425781 19.148438 -16.09375 19.214844 -15.617188 L 20.574219 -17.449219 C 19.488281 -15.753906 18.46875 -14.125 17.65625 -12.425781 C 18.332031 -14.800781 19.011719 -17.246094 19.828125 -19.625 C 20.4375 -21.253906 21.457031 -22.949219 21.933594 -24.648438 C 22.476562 -26.820312 20.574219 -29.808594 18.128906 -29.46875 C 16.363281 -29.265625 14.871094 -27.226562 13.988281 -25.800781 C 12.902344 -24.039062 11.609375 -22.40625 10.523438 -20.710938 C 9.234375 -18.605469 8.148438 -16.296875 7.0625 -14.125 C 6.109375 -12.359375 5.636719 -10.320312 4.617188 -8.691406 C 4.753906 -9.4375 4.480469 -9.980469 4.480469 -10.660156 C 4.480469 -11.273438 4.753906 -12.019531 4.890625 -12.628906 C 5.09375 -13.582031 5.636719 -14.394531 5.839844 -15.347656 C 5.976562 -15.820312 5.839844 -16.023438 5.976562 -16.5 C 6.042969 -16.839844 6.382812 -17.246094 6.585938 -17.519531 C 7.0625 -18.199219 7.671875 -18.808594 8.082031 -19.488281 C 8.148438 -19.625 8.285156 -19.757812 8.285156 -19.894531 C 8.554688 -20.847656 7.875 -21.183594 7.535156 -21.660156 C 7.199219 -22.066406 6.859375 -22.949219 6.316406 -23.425781 C 5.90625 -23.765625 5.226562 -24.171875 4.753906 -23.96875 C 4.140625 -23.699219 4.414062 -23.359375 4.210938 -23.019531 C 3.9375 -22.339844 3.394531 -21.796875 3.054688 -21.183594 C 2.511719 -20.03125 2.035156 -18.875 1.699219 -17.722656 C 0.882812 -15.347656 -0.0664062 -12.902344 0.0664062 -10.390625 C 0.136719 -8.488281 -0.40625 -6.925781 1.019531 -5.226562 C 1.699219 -4.414062 4.34375 -2.648438 5.023438 -3.871094 C 5.09375 -4.007812 5.160156 -4.550781 5.160156 -4.753906 C 5.363281 -5.433594 5.839844 -6.042969 6.109375 -6.722656 C 6.789062 -8.082031 7.402344 -9.507812 8.148438 -10.933594 C 10.050781 -14.53125 11.476562 -17.992188 13.714844 -21.457031 C 14.394531 -22.476562 15.210938 -23.492188 16.023438 -24.445312 C 16.226562 -24.648438 17.246094 -26.074219 17.382812 -26.007812 C 18.46875 -25.9375 16.296875 -21.796875 16.09375 -21.050781 C 15.210938 -18.742188 13.648438 -16.363281 13.375 -13.917969 C 13.308594 -13.105469 13.511719 -12.832031 13.308594 -12.085938 C 13.105469 -11.273438 12.765625 -10.390625 12.832031 -9.507812 C 12.96875 -8.691406 13.308594 -7.945312 13.917969 -7.402344 C 16.09375 -5.296875 16.976562 -7.742188 17.925781 -9.371094 C 19.082031 -11.273438 20.167969 -13.988281 21.59375 -15.414062 C 23.832031 -17.585938 24.988281 -20.507812 27.226562 -22.609375 C 26.890625 -21.863281 24.988281 -17.246094 25.054688 -17.179688 C 25.191406 -17.316406 25.257812 -17.449219 25.328125 -17.585938 C 25.054688 -16.839844 24.785156 -16.160156 24.582031 -15.480469 C 24.445312 -15.550781 24.714844 -16.09375 24.648438 -16.09375 C 24.242188 -16.160156 23.019531 -12.359375 22.949219 -12.085938 C 22.476562 -10.726562 22.273438 -9.4375 22.273438 -8.011719 C 22.273438 -6.722656 22.273438 -5.433594 22.476562 -4.074219 C 22.609375 -3.257812 22.816406 -2.375 23.222656 -1.628906 C 23.359375 -1.289062 24.308594 -0.339844 24.308594 -0.476562 C 24.375 -0.339844 24.375 -0.203125 24.511719 -0.136719 L 24.445312 -0.203125 C 24.308594 0.339844 27.160156 1.289062 27.636719 1.222656 C 30.011719 1.15625 32.390625 -2.035156 33.679688 -3.734375 C 35.582031 -6.042969 37.277344 -8.554688 38.976562 -11 C 39.859375 -12.289062 41.691406 -14.53125 41.285156 -16.296875 Z M 16.90625 -20.777344 L 16.976562 -20.777344 C 16.90625 -20.710938 16.839844 -20.574219 16.839844 -20.574219 C 16.023438 -18.875 15.617188 -16.90625 14.9375 -15.074219 C 14.394531 -13.714844 13.714844 -12.085938 13.582031 -10.59375 C 13.582031 -12.15625 14.054688 -13.988281 14.53125 -15.347656 C 15.074219 -16.976562 15.890625 -18.535156 16.566406 -20.097656 C 16.839844 -20.640625 18.46875 -24.851562 18.199219 -25.9375 C 18.605469 -24.988281 17.382812 -21.796875 16.976562 -20.777344 L 16.976562 -20.847656 Z M 16.90625 -20.777344 "/></g></g></g><g fill="#eb6440" fill-opacity="1"><g transform="translate(323.370643, 207.020196)"><g><path d="M 34.5625 -16.363281 C 34.492188 -17.859375 33.273438 -16.566406 32.863281 -16.023438 C 31.980469 -14.734375 31.167969 -13.375 30.351562 -12.085938 C 28.519531 -9.300781 26.683594 -6.519531 24.582031 -3.871094 C 17.585938 4.753906 22.476562 -10.59375 21.933594 -10.457031 C 21.660156 -10.390625 21.457031 -9.371094 21.390625 -9.167969 C 21.933594 -11.609375 22.949219 -14.53125 24.242188 -16.90625 C 24.988281 -18.402344 25.871094 -19.625 24.511719 -21.253906 C 22 -24.308594 19.082031 -21.523438 17.449219 -19.417969 C 16.773438 -22 15.414062 -25.800781 12.085938 -25.800781 C 10.59375 -25.800781 9.710938 -25.054688 8.691406 -24.171875 C 8.082031 -23.765625 7.605469 -23.699219 7.0625 -23.222656 C 6.179688 -22.609375 5.566406 -21.660156 4.957031 -20.847656 C 2.648438 -17.449219 1.019531 -13.171875 0.273438 -9.234375 C -0.0664062 -7.332031 -0.203125 -5.226562 0.339844 -3.328125 C 0.679688 -2.242188 1.902344 0.203125 3.464844 0 C 3.53125 0 3.394531 -0.0664062 3.191406 -0.203125 C 4.140625 0.0664062 5.226562 -0.0664062 6.042969 -0.609375 C 6.109375 -0.476562 5.296875 -0.136719 5.296875 -0.136719 C 6.042969 1.019531 11.609375 -5.703125 12.019531 -6.316406 C 12.902344 -7.535156 13.511719 -8.828125 14.328125 -10.117188 C 14.9375 -11.066406 15.890625 -12.289062 16.566406 -13.308594 C 16.5 -12.832031 16.5 -12.222656 16.5 -12.222656 C 15.277344 -8.351562 14.125 -4.140625 15.753906 -0.136719 C 16.5 1.902344 18.332031 3.800781 20.640625 3.394531 C 22.679688 3.054688 24.375 1.085938 25.597656 -0.476562 C 27.09375 -2.242188 28.382812 -4.210938 29.671875 -6.246094 C 30.757812 -8.082031 31.777344 -9.914062 32.660156 -11.949219 C 33.203125 -13.242188 34.699219 -14.800781 34.5625 -16.363281 Z M 15.074219 -15.890625 C 14.734375 -15.414062 14.394531 -14.9375 14.125 -14.464844 L 12.359375 -11.949219 C 11.203125 -10.253906 9.980469 -8.625 8.691406 -7.0625 C 8.351562 -6.585938 6.722656 -4.480469 6.042969 -4.683594 C 5.023438 -5.023438 6.109375 -8.554688 6.246094 -9.097656 C 6.449219 -10.050781 10.050781 -20.507812 11 -20.710938 C 9.777344 -20.777344 5.839844 -8.488281 5.636719 -7.46875 C 6.179688 -10.796875 7.402344 -14.054688 8.757812 -17.109375 C 9.507812 -18.671875 11.203125 -22.816406 13.445312 -22.816406 C 14.667969 -22.816406 14.9375 -20.300781 15.140625 -19.488281 C 15.074219 -19.625 14.464844 -21.59375 14.394531 -21.523438 C 14.054688 -21.253906 15.414062 -17.519531 15.414062 -16.976562 C 15.414062 -16.433594 15.414062 -16.433594 15.074219 -15.890625 Z M 16.636719 -12.5625 C 16.636719 -12.5625 16.839844 -13.511719 16.90625 -13.714844 L 17.246094 -14.191406 Z M 15.617188 -16.773438 L 15.617188 -17.449219 C 15.820312 -17.179688 15.820312 -16.976562 15.617188 -16.773438 Z M 15.617188 -16.773438 "/></g></g></g><g fill="#eb6440" fill-opacity="1"><g transform="translate(352.9735, 207.020196)"><g><path d="M 26.957031 -15.957031 C 26.753906 -16.90625 26.210938 -17.042969 25.53125 -16.773438 C 24.242188 -16.160156 22.949219 -14.800781 21.726562 -13.988281 C 18.945312 -12.222656 16.160156 -10.796875 13.171875 -9.300781 C 13.171875 -9.371094 13.105469 -9.507812 13.035156 -9.710938 C 13.105469 -9.371094 13.035156 -9.234375 12.96875 -9.167969 C 12.289062 -12.085938 11.609375 -15.007812 11.066406 -17.992188 C 11.339844 -16.703125 11.949219 -14.53125 12.425781 -12.699219 C 11.816406 -15.550781 11.066406 -19.082031 11.136719 -19.082031 C 11 -19.011719 11 -18.875 11 -18.742188 C 10.863281 -19.554688 10.660156 -20.574219 10.796875 -21.457031 C 10.863281 -22.476562 11.40625 -23.359375 11.746094 -24.308594 C 11.679688 -23.832031 11.542969 -23.222656 11.542969 -23.222656 C 11.949219 -23.15625 12.222656 -25.667969 12.222656 -25.9375 C 12.15625 -26.347656 11.273438 -27.636719 11.273438 -27.296875 C 9.4375 -28.992188 5.839844 -25.257812 5.296875 -23.628906 C 4.890625 -22.542969 4.890625 -21.390625 4.957031 -20.234375 C 5.023438 -19.082031 5.363281 -18.0625 5.703125 -16.976562 C 5.90625 -16.160156 5.636719 -15.617188 5.703125 -14.734375 C 5.839844 -13.375 6.316406 -12.019531 6.585938 -10.726562 C 6.859375 -9.710938 7.742188 -7.671875 7.535156 -6.722656 C 7.402344 -5.773438 5.363281 -4.957031 4.480469 -4.414062 C 3.328125 -3.667969 2.171875 -2.785156 1.019531 -1.902344 C -1.019531 -0.339844 -3.191406 1.628906 -4.007812 4.140625 C -4.140625 4.480469 -4.617188 5.976562 -4.140625 6.246094 C -4.074219 6.316406 -3.871094 5.160156 -3.800781 5.023438 C -4.683594 9.507812 -0.273438 11.679688 3.871094 11.746094 C 8.554688 11.882812 11.816406 9.167969 13.445312 4.957031 C 14.125 3.125 14.328125 1.222656 14.257812 -0.679688 C 14.257812 -1.96875 14.125 -3.191406 13.917969 -4.414062 C 13.785156 -5.5 13.648438 -5.433594 14.394531 -6.042969 C 14.9375 -6.449219 15.753906 -6.722656 16.296875 -6.992188 C 18.46875 -8.148438 20.4375 -9.507812 22.40625 -10.933594 C 23.832031 -11.949219 27.226562 -13.714844 26.957031 -15.890625 Z M -0.476562 7.402344 C -2.242188 6.859375 -0.476562 4.074219 0.136719 3.191406 C 1.15625 1.832031 2.648438 0.816406 4.007812 -0.136719 L 6.042969 -1.492188 C 6.246094 -1.628906 7.535156 -2.648438 7.128906 -2.511719 L 7.945312 -2.988281 L 7.46875 -2.582031 C 7.605469 -2.648438 7.808594 -2.714844 7.945312 -2.851562 C 8.011719 -1.222656 8.011719 0.40625 7.535156 2.035156 C 7.46875 2.308594 6.179688 5.023438 5.636719 5.566406 L 5.976562 5.296875 C 5.363281 6.042969 4.683594 6.65625 3.871094 7.128906 C 3.871094 7.0625 4.480469 6.65625 4.414062 6.585938 L 2.511719 7.332031 C 1.5625 7.535156 0.476562 7.742188 -0.476562 7.402344 Z M 8.082031 9.371094 C 6.316406 10.117188 4.617188 10.457031 2.785156 10.523438 C 6.109375 10.320312 9.574219 8.691406 11.542969 5.90625 C 10.796875 7.402344 9.847656 8.554688 8.082031 9.371094 Z M 13.035156 -9.914062 C 12.96875 -10.390625 12.832031 -11.066406 12.628906 -11.816406 C 12.765625 -11.066406 12.902344 -10.320312 13.035156 -9.914062 Z M 13.917969 -2.851562 C 13.851562 -2.917969 13.851562 -3.054688 13.851562 -3.191406 C 13.851562 -3.054688 13.917969 -2.917969 13.917969 -2.851562 Z M 13.917969 -2.851562 "/></g></g></g></svg>